<?xml version="1.0" encoding="UTF-8" standalone="no"?>
<!-- Created with Inkscape (http://www.inkscape.org/) -->

<svg
   width="120mm"
   height="120mm"
   viewBox="0 0 120 120"
   version="1.1"
   id="svg1"
   sodipodi:docname="stetheoscope.svg"
   inkscape:version="1.3.2 (091e20e, 2023-11-25)"
   xmlns:inkscape="http://www.inkscape.org/namespaces/inkscape"
   xmlns:sodipodi="http://sodipodi.sourceforge.net/DTD/sodipodi-0.dtd"
   xmlns:xlink="http://www.w3.org/1999/xlink"
   xmlns="http://www.w3.org/2000/svg"
   xmlns:svg="http://www.w3.org/2000/svg">
  <sodipodi:namedview
     id="namedview1"
     pagecolor="#505050"
     bordercolor="#eeeeee"
     borderopacity="1"
     inkscape:showpageshadow="0"
     inkscape:pageopacity="0"
     inkscape:pagecheckerboard="0"
     inkscape:deskcolor="#505050"
     inkscape:document-units="mm"
     inkscape:zoom="1.3869278"
     inkscape:cx="167.27619"
     inkscape:cy="152.49532"
     inkscape:window-width="1744"
     inkscape:window-height="1052"
     inkscape:window-x="190"
     inkscape:window-y="0"
     inkscape:window-maximized="0"
     inkscape:current-layer="layer1" />
  <defs
     id="defs1">
    <linearGradient
       id="linearGradient24"
       inkscape:collect="always">
      <stop
         style="stop-color:#000000;stop-opacity:1;"
         offset="0"
         id="stop24" />
      <stop
         style="stop-color:#2f2f2e;stop-opacity:1;"
         offset="1"
         id="stop25" />
    </linearGradient>
    <linearGradient
       id="linearGradient13"
       inkscape:collect="always">
      <stop
         style="stop-color:#131212;stop-opacity:1;"
         offset="0"
         id="stop13" />
      <stop
         style="stop-color:#66676c;stop-opacity:1;"
         offset="1"
         id="stop14" />
    </linearGradient>
    <radialGradient
       inkscape:collect="always"
       xlink:href="#linearGradient13"
       id="radialGradient14"
       cx="79.239517"
       cy="30.696293"
       fx="79.239517"
       fy="30.696293"
       r="9.7050381"
       gradientUnits="userSpaceOnUse" />
    <radialGradient
       inkscape:collect="always"
       xlink:href="#linearGradient24"
       id="radialGradient25"
       cx="79.033345"
       cy="30.906533"
       fx="79.033345"
       fy="30.906533"
       r="20.610339"
       gradientTransform="translate(0)"
       gradientUnits="userSpaceOnUse" />
  </defs>
  <g
     inkscape:label="Layer 1"
     inkscape:groupmode="layer"
     id="layer1">
    <g
       id="g16"
       style="fill:url(#radialGradient25)">
      <g
         id="g15"
         style="fill:url(#radialGradient25)">
        <path
           id="path3"
           style="fill:url(#radialGradient25);fill-opacity:1;stroke:#ffffff;stroke-width:0.309999"
           d="m 79.033602,10.451191 a 20.455366,20.455366 0 0 0 -20.455597,20.455599 20.455366,20.455366 0 0 0 3.10213,10.793134 l 7.031617,-5.793956 A 11.478508,11.660334 0 0 1 67.555232,30.90679 11.478508,11.660334 0 0 1 79.033602,19.246519 11.478508,11.660334 0 0 1 90.511974,30.90679 11.478508,11.660334 0 0 1 79.033602,42.567064 11.478508,11.660334 0 0 1 72.167352,40.194078 l -6.9634,5.737636 a 20.455366,20.455366 0 0 0 13.82965,5.43016 A 20.455366,20.455366 0 0 0 99.488684,30.90679 20.455366,20.455366 0 0 0 79.033602,10.451191 Z" />
      </g>
    </g>
    <g
       id="g14">
      <path
         id="path2"
         style="fill:#454545;fill-opacity:1;stroke:#ffffff;stroke-width:0.25785"
         d="m 79.139255,21.182957 c -5.36828,8.1e-5 -9.72003,4.352062 -9.71982,9.72034 0.008,1.571854 0.39736,3.118287 1.1343,4.506706 -3.03755,2.510295 -6.05004,4.959103 -9.043287,7.366367 -12.3108,9.90073 -22.382287,15.982504 -34.446347,25.864884 -6.6012,5.40742 -9.62804,24.2562 -14.85771,30.31607 -1.91739,2.221776 -4.7435898,6.912526 -4.7435898,6.912526 l 4.2421298,0.008 c 0,0 1.42618,-1.70618 3.66664,-4.29996 5.35472,-6.199186 7.75526,-24.297886 14.05851,-29.462236 9.8864,-8.10011 24.506507,-18.164794 34.754494,-26.308394 5.41269,-4.30121 9.07184,-7.197207 9.07184,-7.197207 1.68768,1.296937 3.75441,2.00406 5.88284,2.01279 5.36807,-8.1e-5 9.71974,-4.351743 9.71982,-9.719816 2.1e-4,-5.368278 -4.35154,-9.720259 -9.71982,-9.72034 z"
         sodipodi:nodetypes="cccsssccsssccccc" />
      <circle
         style="fill:url(#radialGradient14);fill-opacity:1;stroke:#ffffff;stroke-width:0.309999"
         id="path12"
         cx="79.239517"
         cy="30.696293"
         r="9.5500383" />
    </g>
  </g>
</svg>
